<?xml version="1.0" encoding="utf-8"?>
<!-- Generator: Adobe Illustrator 17.0.1, SVG Export Plug-In . SVG Version: 6.00 Build 0)  -->
<!DOCTYPE svg PUBLIC "-//W3C//DTD SVG 1.1//EN" "http://www.w3.org/Graphics/SVG/1.1/DTD/svg11.dtd">
<svg version="1.1" id="Layer_1" xmlns="http://www.w3.org/2000/svg" xmlns:xlink="http://www.w3.org/1999/xlink" x="0px" y="0px"
	 width="20px" height="24px" viewBox="0 0 20 24" enable-background="new 0 0 20 24" xml:space="preserve">
<path fill="#FFFFFF" d="M16.29,1.659c-0.034,0.016-3.438,1.645-6.269,1.645c-2.829,0-6.237-1.628-6.269-1.644L0.829,0.24
	L0.828,19.044l9.192,4.747l9.193-4.747V0.234L16.29,1.659z M18.289,3.489v14.992l-0.765,0.395l-8.808-4.549
	c0.421,0.037,0.853,0.062,1.306,0.062c3.496,0,6.08-1.223,7.159-1.837V5.5l-0.123-0.01c-0.235-0.026-0.465-0.039-0.692-0.039
	c-3.345,0-6.067,2.722-6.067,6.066H9.558c0-3.345-2.722-6.066-6.067-6.066c-0.21,0-0.422,0.013-0.631,0.035v7.065L16.314,19.5
	l-1.297,0.669L2.861,13.891v1.248l10.947,5.654l-1.297,0.669l-9.65-4.985v1.248l8.442,4.36l-1.283,0.662l-8.268-4.267V3.489
	l0.001-1.772l1.594,0.774c0.036,0.017,3.609,1.736,6.673,1.736s6.637-1.719,6.673-1.736l1.595-0.777v1.775H18.289z M12.239,9.244
	c-0.013-0.866,0.389-1.724,1.152-2.258c0.763-0.534,1.707-0.62,2.516-0.31c0.013,0.866-0.389,1.724-1.152,2.258
	S13.048,9.553,12.239,9.244z M7.802,9.244c-0.809,0.309-1.753,0.224-2.516-0.31C4.522,8.399,4.119,7.541,4.134,6.675
	c0.809-0.309,1.753-0.224,2.516,0.31C7.413,7.52,7.815,8.377,7.802,9.244z"/>
</svg>
